# xmcd CD database file generated by Grip 3.0.5
# 
# Track frame offsets:
#       150
#       1887
#       20209
#       45604
#       72764
#       95514
#       114942
#       130103
#       143545
#       168134
#       185075
#       221950
#       255602
#       274014
# 
# Disc length: 3992 seconds
# 
# Revision: 1
# Processed by: cddbd v1.5.1PL0 Copyright (c) Steve Scherf et al.
# Submitted via: Grip 3.0.5
# 
DISCID=c20f960e
DTITLE=Mama's Pit - Rush Hour  Disc 2
DYEAR=2004
DGENRE=Blues
TTITLE0=Introduction
TTITLE1=Let The Good Time Roll
TTITLE2=Out Of Sight, Out Of Mind
TTITLE3=Down Home Blues
TTITLE4=Hoochie Coochie Woman
TTITLE5=Piece Of My Heart
TTITLE6=Dr. Feelgood
TTITLE7=Scuttle Buttin'
TTITLE8=The Sky Is Crying
TTITLE9=Night Time Is The Right Time
TTITLE10=I'm Not Ashamed To Sing The Blues
TTITLE11=Born In Chicago
TTITLE12=A Good Fool Is Hard To Find
TTITLE13=Baby I Love You
EXTD=
EXTT0=
EXTT1=
EXTT2=
EXTT3=
EXTT4=
EXTT5=
EXTT6=
EXTT7=
EXTT8=
EXTT9=
EXTT10=
EXTT11=
EXTT12=
EXTT13=
PLAYORDER=
